# xmcd CD database file
#
# Track frame offsets:
#	187
#	13697
#	28720
#	48187
#	69685
#	82782
#	102425
#	120700
#
# Disc length: 1867 seconds
#
# Revision: 0
# Processed by: cddbd v1.5PL3 Copyright (c) Steve Scherf et al.
# Submitted via: CDex 1.51
#
DISCID=5e074908
DTITLE=岩崎宏美 - BEST OF BEST 岩崎宏美
DYEAR=1994
DGENRE=JPop
TTITLE0=二重唱(デュエット)
TTITLE1=ロマンス
TTITLE2=思秋期
TTITLE3=万華鏡
TTITLE4=すみれ色の涙
TTITLE5=聖母たちのララバイ
TTITLE6=決心
TTITLE7=家路
EXTD=YEAR: 1994
EXTT0=
EXTT1=
EXTT2=
EXTT3=
EXTT4=
EXTT5=
EXTT6=
EXTT7=
PLAYORDER=
